<?xml version="1.0" encoding="UTF-8"?>
<svg width="100px" height="88px" viewBox="0 0 100 88" version="1.1" xmlns="http://www.w3.org/2000/svg" xmlns:xlink="http://www.w3.org/1999/xlink">
    <!-- Generator: Sketch 55.2 (78181) - https://sketchapp.com -->
    <title>database</title>
    <desc>Created with Sketch.</desc>
    <g id="database" stroke="none" stroke-width="1" fill="none" fill-rule="evenodd">
        <g id="Group-15" fill="#000000">
            <path d="M96,61 C96,63.757 93.757,66 91,66 L75.691,66 C75.894,64.695 76,63.36 76,62 C76,48.337 65.405,37.11 52,36.085 L52,9 C52,6.243 54.243,4 57,4 L91,4 C93.757,4 96,6.243 96,9 L96,61 Z M61.109,64.3 L47.445,74.325 C46.84,74.77 46.085,74.997 45.323,74.997 C44.752,74.997 44.178,74.869 43.662,74.607 C42.621,74.081 42,73.116 42,72.026 L42,51.974 C42,50.884 42.621,49.919 43.662,49.393 C44.865,48.782 46.385,48.896 47.445,49.675 L61.109,59.7 C61.875,60.262 62.314,61.101 62.314,62 C62.314,62.899 61.875,63.738 61.109,64.3 L61.109,64.3 Z M24,62 C24,63.36 24.106,64.695 24.309,66 L9,66 C6.243,66 4,63.757 4,61 L4,9 C4,6.243 6.243,4 9,4 L43,4 C45.757,4 48,6.243 48,9 L48,36.085 C34.595,37.11 24,48.337 24,62 L24,62 Z M91,0 L57,0 C54.174,0 51.651,1.312 50,3.355 C48.349,1.312 45.826,0 43,0 L9,0 C4.037,0 0,4.037 0,9 L0,61 C0,65.963 4.037,70 9,70 L25.265,70 C28.647,80.434 38.454,88 50,88 C61.546,88 71.353,80.434 74.735,70 L91,70 C95.963,70 100,65.963 100,61 L100,9 C100,4.037 95.963,0 91,0 L91,0 Z" id="Fill-1"></path>
            <path d="M13,17 L39,17 C40.104,17 41,16.104 41,15 C41,13.896 40.104,13 39,13 L13,13 C11.896,13 11,13.896 11,15 C11,16.104 11.896,17 13,17" id="Fill-3"></path>
            <path d="M13,29 L39,29 C40.104,29 41,28.104 41,27 C41,25.896 40.104,25 39,25 L13,25 C11.896,25 11,25.896 11,27 C11,28.104 11.896,29 13,29" id="Fill-5"></path>
            <path d="M27,39 C27,37.896 26.104,37 25,37 L13,37 C11.896,37 11,37.896 11,39 C11,40.104 11.896,41 13,41 L25,41 C26.104,41 27,40.104 27,39" id="Fill-7"></path>
            <path d="M87,13 L61,13 C59.896,13 59,13.896 59,15 C59,16.104 59.896,17 61,17 L87,17 C88.104,17 89,16.104 89,15 C89,13.896 88.104,13 87,13" id="Fill-9"></path>
            <path d="M87,25 L61,25 C59.896,25 59,25.896 59,27 C59,28.104 59.896,29 61,29 L87,29 C88.104,29 89,28.104 89,27 C89,25.896 88.104,25 87,25" id="Fill-11"></path>
            <path d="M87,37 L75,37 C73.896,37 73,37.896 73,39 C73,40.104 73.896,41 75,41 L87,41 C88.104,41 89,40.104 89,39 C89,37.896 88.104,37 87,37" id="Fill-13"></path>
        </g>
    </g>
</svg>