<?xml version="1.0" encoding="UTF-8"?>
<svg width="24px" height="24px" viewBox="0 0 24 24" version="1.1" xmlns="http://www.w3.org/2000/svg" xmlns:xlink="http://www.w3.org/1999/xlink">
    <!-- Generator: Sketch 55.2 (78181) - https://sketchapp.com -->
    <title>email</title>
    <desc>Created with Sketch.</desc>
    <g id="email" stroke="none" stroke-width="1" fill="none" fill-rule="evenodd">
        <path d="M9.2915,17.5488 L9.2915,21.3808 C9.2915,21.6488 9.4645,21.8848 9.7215,21.9698 C9.7855,21.9898 9.8515,21.9998 9.9165,21.9998 C10.1115,21.9998 10.2995,21.9088 10.4195,21.7468 L12.6805,18.6968 L9.2915,17.5488 Z" id="Fill-1" fill="#000000"></path>
        <path d="M21.7373,3.1152 C21.5463,2.9802 21.2943,2.9622 21.0863,3.0702 L2.3363,12.7762 C2.1143,12.8912 1.9833,13.1262 2.0013,13.3732 C2.0213,13.6212 2.1863,13.8322 2.4223,13.9132 L7.6353,15.6782 L18.7353,6.2692 L10.1463,16.5292 L18.8823,19.4882 C18.9463,19.5102 19.0143,19.5212 19.0833,19.5212 C19.1963,19.5212 19.3093,19.4912 19.4083,19.4312 C19.5663,19.3362 19.6743,19.1752 19.7013,18.9942 L21.9933,3.7112 C22.0273,3.4802 21.9283,3.2502 21.7373,3.1152" id="Fill-3" fill="#000000"></path>
    </g>
</svg>