<?xml version="1.0" encoding="UTF-8"?>
<svg width="24px" height="24px" viewBox="0 0 24 24" version="1.1" xmlns="http://www.w3.org/2000/svg" xmlns:xlink="http://www.w3.org/1999/xlink">
    <!-- Generator: Sketch 55.2 (78181) - https://sketchapp.com -->
    <title>facebook</title>
    <desc>Created with Sketch.</desc>
    <g id="facebook" stroke="none" stroke-width="1" fill="none" fill-rule="evenodd">
        <path d="M19.6127,1.9998 L4.5157,1.9998 C3.1287,1.9998 1.9997,3.1288 1.9997,4.5168 L1.9997,19.6118 C1.9997,20.9998 3.1287,22.1288 4.5157,22.1288 L12.0647,22.1288 L12.0647,15.2088 L9.5487,15.2088 L9.5487,12.0638 L12.0647,12.0638 L12.0647,9.5488 C12.0647,7.4638 13.7537,5.7738 15.8387,5.7738 L18.3537,5.7738 L18.3537,8.9188 L17.0957,8.9188 C16.4017,8.9188 15.8387,8.8538 15.8387,9.5488 L15.8387,12.0638 L18.9837,12.0638 L17.7247,15.2088 L15.8387,15.2088 L15.8387,22.1288 L19.6127,22.1288 C20.9997,22.1288 22.1287,20.9998 22.1287,19.6118 L22.1287,4.5168 C22.1287,3.1288 20.9997,1.9998 19.6127,1.9998" id="Fill-1" fill="#000000"></path>
    </g>
</svg>