<?xml version="1.0" encoding="UTF-8"?>
<svg width="24px" height="24px" viewBox="0 0 24 24" version="1.1" xmlns="http://www.w3.org/2000/svg" xmlns:xlink="http://www.w3.org/1999/xlink">
    <!-- Generator: Sketch 55.2 (78181) - https://sketchapp.com -->
    <title>instagram</title>
    <desc>Created with Sketch.</desc>
    <g id="instagram" stroke="none" stroke-width="1" fill="none" fill-rule="evenodd">
        <path d="M12.0039,8.6689 C10.1639,8.6689 8.6709,10.1619 8.6709,12.0019 C8.6709,13.8419 10.1639,15.3349 12.0039,15.3349 C13.8449,15.3349 15.3369,13.8419 15.3369,12.0019 C15.3369,10.1619 13.8449,8.6689 12.0039,8.6689" id="Fill-1" fill="#000000"></path>
        <path d="M17.3457,7.8604 C16.6837,7.8604 16.1467,7.3234 16.1467,6.6614 C16.1467,5.9994 16.6837,5.4624 17.3457,5.4624 C18.0087,5.4624 18.5457,5.9994 18.5457,6.6614 C18.5457,7.3234 18.0087,7.8604 17.3457,7.8604 M12.0037,17.1394 C9.1667,17.1394 6.8657,14.8394 6.8657,12.0024 C6.8657,9.1654 9.1667,6.8644 12.0037,6.8644 C14.8407,6.8644 17.1427,9.1654 17.1427,12.0024 C17.1427,14.8394 14.8407,17.1394 12.0037,17.1394 M21.9497,7.8804 C21.9027,6.8174 21.7307,6.0874 21.4847,5.4544 C21.2307,4.7814 20.8397,4.1794 20.3267,3.6794 C19.8267,3.1724 19.2217,2.7774 18.5577,2.5274 C17.9197,2.2814 17.1937,2.1094 16.1307,2.0624 C15.0597,2.0114 14.7197,2.0004 12.0037,2.0004 C9.2877,2.0004 8.9487,2.0114 7.8817,2.0584 C6.8187,2.1054 6.0877,2.2774 5.4547,2.5234 C4.7827,2.7774 4.1807,3.1684 3.6797,3.6794 C3.1727,4.1794 2.7777,4.7864 2.5277,5.4504 C2.2817,6.0874 2.1097,6.8134 2.0627,7.8764 C2.0117,8.9464 1.9997,9.2864 1.9997,12.0024 C1.9997,14.7174 2.0117,15.0574 2.0587,16.1244 C2.1057,17.1864 2.2777,17.9174 2.5237,18.5494 C2.7777,19.2224 3.1727,19.8244 3.6797,20.3244 C4.1807,20.8324 4.7857,21.2264 5.4507,21.4764 C6.0877,21.7224 6.8147,21.8944 7.8777,21.9414 C8.9447,21.9884 9.2837,22.0004 11.9997,22.0004 C14.7157,22.0004 15.0557,21.9884 16.1227,21.9414 C17.1857,21.8944 17.9157,21.7224 18.5497,21.4764 C19.8937,20.9574 20.9567,19.8944 21.4767,18.5494 C21.7227,17.9134 21.8947,17.1864 21.9417,16.1244 C21.9887,15.0574 21.9997,14.7174 21.9997,12.0024 C21.9997,9.2864 21.9957,8.9464 21.9497,7.8804" id="Fill-3" fill="#000000"></path>
    </g>
</svg>