<?xml version="1.0" encoding="UTF-8"?>
<svg width="100px" height="88px" viewBox="0 0 100 88" version="1.1" xmlns="http://www.w3.org/2000/svg" xmlns:xlink="http://www.w3.org/1999/xlink">
    <!-- Generator: Sketch 55.2 (78181) - https://sketchapp.com -->
    <title>lesson</title>
    <desc>Created with Sketch.</desc>
    <g id="lesson" stroke="none" stroke-width="1" fill="none" fill-rule="evenodd">
        <g id="Group-7" fill="#000000">
            <path d="M96,79 C96,81.757 93.757,84 91,84 L9,84 C6.243,84 4,81.757 4,79 L4,53 C4,50.243 6.243,48 9,48 L33.056,48 C37.692,51.748 43.587,54 50,54 C56.413,54 62.308,51.748 66.944,48 L91,48 C93.757,48 96,50.243 96,53 L96,79 Z M35.546,21.138 C35.595,16.643 39.267,13 43.773,13 C46.253,13 48.48,14.103 49.99,15.844 C51.499,14.103 53.727,13 56.206,13 C60.712,13 64.384,16.641 64.433,21.136 C64.537,22.485 64.929,33.501 51.078,42.357 L50.001,43.047 L48.924,42.357 C35.067,33.498 35.445,22.477 35.546,21.138 L35.546,21.138 Z M91,44 L70.956,44 C74.731,39.354 77,33.438 77,27 C77,12.112 64.888,0 50,0 C35.112,0 23,12.112 23,27 C23,33.438 25.269,39.354 29.044,44 L9,44 C4.037,44 0,48.037 0,53 L0,79 C0,83.963 4.037,88 9,88 L91,88 C95.963,88 100,83.963 100,79 L100,53 C100,48.037 95.963,44 91,44 L91,44 Z" id="Fill-1"></path>
            <path d="M76,59 L14,59 C12.896,59 12,59.896 12,61 C12,62.104 12.896,63 14,63 L76,63 C77.104,63 78,62.104 78,61 C78,59.896 77.104,59 76,59" id="Fill-3"></path>
            <path d="M45,71 L14,71 C12.896,71 12,71.896 12,73 C12,74.104 12.896,75 14,75 L45,75 C46.104,75 47,74.104 47,73 C47,71.896 46.104,71 45,71" id="Fill-5"></path>
        </g>
    </g>
</svg>