<?xml version="1.0" encoding="UTF-8"?>
<svg width="109px" height="32px" viewBox="0 0 109 32" version="1.1" xmlns="http://www.w3.org/2000/svg" xmlns:xlink="http://www.w3.org/1999/xlink">
    <!-- Generator: Sketch 55.2 (78181) - https://sketchapp.com -->
    <title>Group 18 Copy</title>
    <desc>Created with Sketch.</desc>
    <g id="symbols" stroke="none" stroke-width="1" fill="none" fill-rule="evenodd">
        <g id="elements/footer" transform="translate(-120.000000, -65.000000)" fill="#000000">
            <g id="Group" transform="translate(120.000000, 65.000000)">
                <g id="Group-18-Copy" transform="translate(-0.000000, 0.000000)">
                    <path d="M7.05713684,25.1116211 C6.88871579,24.9545684 6.80408421,24.7524632 6.80408421,24.5053053 L6.80408421,7.25898947 L0.875663158,7.25898947 C0.628505263,7.25898947 0.420926316,7.18067368 0.252926316,7.0232 C0.0840842105,6.86614737 -0.000126315789,6.66404211 -0.000126315789,6.41688421 L-0.000126315789,2.64425263 C-0.000126315789,2.39751579 0.0840842105,2.18951579 0.252926316,2.02109474 C0.420926316,1.85267368 0.628505263,1.76846316 0.875663158,1.76846316 L19.1666105,1.76846316 C19.4133474,1.76846316 19.6213474,1.85267368 19.7893474,2.02109474 C19.9581895,2.18951579 20.0424,2.39751579 20.0424,2.64425263 L20.0424,6.41688421 C20.0424,6.66404211 19.9581895,6.86614737 19.7893474,7.0232 C19.6213474,7.18067368 19.4133474,7.25898947 19.1666105,7.25898947 L13.2381895,7.25898947 L13.2381895,24.5053053 C13.2381895,24.7524632 13.1535579,24.9545684 12.9855579,25.1116211 C12.8171368,25.2690947 12.6091368,25.3474105 12.3624,25.3474105 L7.67987368,25.3474105 C7.43313684,25.3474105 7.22513684,25.2690947 7.05713684,25.1116211" id="Fill-1"></path>
                    <path d="M22.7372632,23.6969684 C21.5242105,22.3723368 20.9183158,20.4969684 20.9183158,18.0717053 L20.9183158,8.67381053 C20.9183158,8.42707368 21.0025263,8.22496842 21.1705263,8.06749474 C21.3393684,7.91044211 21.5355789,7.83170526 21.7604211,7.83170526 L26.24,7.83170526 C26.4871579,7.83170526 26.6947368,7.91044211 26.8635789,8.06749474 C27.0315789,8.22496842 27.1157895,8.42707368 27.1157895,8.67381053 L27.1157895,17.8696 C27.1157895,19.9580211 28.0475789,21.0022316 29.9115789,21.0022316 C30.8096842,21.0022316 31.512,20.7272842 32.0168421,20.1769684 C32.5221053,19.6266526 32.7751579,18.8578105 32.7751579,17.8696 L32.7751579,8.67381053 C32.7751579,8.42707368 32.8589474,8.22496842 33.0273684,8.06749474 C33.1962105,7.91044211 33.4033684,7.83170526 33.6509474,7.83170526 L38.0968421,7.83170526 C38.3435789,7.83170526 38.5461053,7.91044211 38.7035789,8.06749474 C38.8602105,8.22496842 38.9389474,8.42707368 38.9389474,8.67381053 L38.9389474,24.5053895 C38.9389474,24.7302316 38.8602105,24.9264421 38.7035789,25.0948632 C38.5461053,25.2632842 38.3435789,25.3474947 38.0968421,25.3474947 L33.9877895,25.3474947 C33.7402105,25.3474947 33.5330526,25.2691789 33.3642105,25.1117053 C33.1962105,24.9546526 33.112,24.7525474 33.112,24.5053895 L33.112,23.2253895 C31.944,24.8645474 30.08,25.6843368 27.52,25.6843368 C25.544,25.6843368 23.9498947,25.0220211 22.7372632,23.6969684" id="Fill-4"></path>
                    <path d="M44.8342737,18.6443368 L44.8342737,12.4127579 L42.1732211,12.4127579 C41.9483789,12.4127579 41.7521684,12.3285474 41.5833263,12.1601263 C41.4153263,11.9917053 41.3311158,11.7954947 41.3311158,11.5706526 L41.3311158,8.67381053 C41.3311158,8.42707368 41.4153263,8.22496842 41.5833263,8.06749474 C41.7521684,7.91044211 41.9483789,7.83170526 42.1732211,7.83170526 L44.8342737,7.83170526 L44.8342737,2.27381053 C44.8342737,2.02707368 44.9180632,1.82496842 45.0869053,1.66749474 C45.2553263,1.51086316 45.4515368,1.43170526 45.6763789,1.43170526 L49.8195368,1.43170526 C50.0662737,1.43170526 50.2683789,1.51086316 50.4254316,1.66749474 C50.5824842,1.82496842 50.6616421,2.02707368 50.6616421,2.27381053 L50.6616421,7.83170526 L54.8721684,7.83170526 C55.1189053,7.83170526 55.3269053,7.91044211 55.4949053,8.06749474 C55.6637474,8.22496842 55.7479579,8.42707368 55.7479579,8.67381053 L55.7479579,11.5706526 C55.7479579,11.8182316 55.6637474,12.0203368 55.4949053,12.1769684 C55.3269053,12.3344421 55.1189053,12.4127579 54.8721684,12.4127579 L50.6616421,12.4127579 L50.6616421,18.1390737 C50.6616421,18.9251789 50.8073263,19.5201263 51.0995368,19.9243368 C51.3909053,20.3285474 51.8624842,20.5306526 52.5138526,20.5306526 L55.1753263,20.5306526 C55.4220632,20.5306526 55.6241684,20.6148632 55.7816421,20.7832842 C55.9382737,20.9517053 56.0174316,21.1597053 56.0174316,21.4064421 L56.0174316,24.5053895 C56.0174316,24.7302316 55.9382737,24.9264421 55.7816421,25.0948632 C55.6241684,25.2632842 55.4220632,25.3474947 55.1753263,25.3474947 L51.9753263,25.3474947 C47.2140632,25.3474947 44.8342737,23.1133895 44.8342737,18.6443368" id="Fill-6"></path>
                    <path d="M58.9983579,25.0947789 C58.8299368,24.9263579 58.7453053,24.7301474 58.7453053,24.5053053 L58.7453053,8.67372632 C58.7453053,8.42698947 58.8299368,8.22488421 58.9983579,8.06741053 C59.1663579,7.91035789 59.3629895,7.83162105 59.5874105,7.83162105 L63.7979368,7.83162105 C64.0450947,7.83162105 64.2526737,7.91035789 64.4215158,8.06741053 C64.5899368,8.22488421 64.6737263,8.42698947 64.6737263,8.67372632 L64.6737263,24.5053053 C64.6737263,24.7528842 64.5899368,24.9545684 64.4215158,25.1116211 C64.2526737,25.2690947 64.0450947,25.3474105 63.7979368,25.3474105 L59.5874105,25.3474105 C59.3629895,25.3474105 59.1663579,25.2632 58.9983579,25.0947789 M58.9815158,5.15372632 C58.8240421,4.98530526 58.7453053,4.77814737 58.7453053,4.53056842 L58.7453053,1.39793684 C58.7453053,1.1512 58.8299368,0.9432 58.9983579,0.774778947 C59.1663579,0.606357895 59.3629895,0.522147368 59.5874105,0.522147368 L63.7979368,0.522147368 C64.0450947,0.522147368 64.2526737,0.606357895 64.4215158,0.774778947 C64.5899368,0.9432 64.6737263,1.1512 64.6737263,1.39793684 L64.6737263,4.53056842 C64.6737263,4.77814737 64.5899368,4.98530526 64.4215158,5.15372632 C64.2526737,5.32214737 64.0450947,5.40635789 63.7979368,5.40635789 L59.5874105,5.40635789 C59.3402526,5.40635789 59.1381474,5.32214737 58.9815158,5.15372632" id="Fill-8"></path>
                    <path d="M70.7874105,25.1116211 C70.6189895,24.9545684 70.5347789,24.7524632 70.5347789,24.5053053 L70.5347789,12.4126737 L68.0084632,12.4126737 C67.7613053,12.4126737 67.5537263,12.3343579 67.3853053,12.1768842 C67.2173053,12.0202526 67.1326737,11.8181474 67.1326737,11.5705684 L67.1326737,8.67372632 C67.1326737,8.42698947 67.2173053,8.22488421 67.3853053,8.06741053 C67.5537263,7.91035789 67.7613053,7.83162105 68.0084632,7.83162105 L70.5347789,7.83162105 L70.5347789,6.82109474 C70.5347789,4.57604211 71.1857263,2.94741053 72.4884632,1.93688421 C73.7907789,0.926357895 75.6547789,0.421094737 78.0800421,0.421094737 L80.7410947,0.421094737 C80.9882526,0.421094737 81.1958316,0.499831579 81.3642526,0.656884211 C81.5330947,0.814357895 81.6168842,1.01646316 81.6168842,1.2632 L81.6168842,4.16004211 C81.6168842,4.40762105 81.5330947,4.60972632 81.3642526,4.76635789 C81.1958316,4.92383158 80.9882526,5.00214737 80.7410947,5.00214737 L78.3495158,5.00214737 C77.6307789,5.00214737 77.1200421,5.16509474 76.8168842,5.49056842 C76.5137263,5.81646316 76.3621474,6.31583158 76.3621474,6.98951579 L76.3621474,7.83162105 L80.4042526,7.83162105 C80.6514105,7.83162105 80.8589895,7.91035789 81.0274105,8.06741053 C81.1958316,8.22488421 81.2800421,8.42698947 81.2800421,8.67372632 L81.2800421,11.5705684 C81.2800421,11.8181474 81.1958316,12.0202526 81.0274105,12.1768842 C80.8589895,12.3343579 80.6514105,12.4126737 80.4042526,12.4126737 L76.3621474,12.4126737 L76.3621474,24.5053053 C76.3621474,24.7301474 76.2834105,24.9263579 76.1263579,25.0947789 C75.9693053,25.2632 75.7667789,25.3474105 75.5200421,25.3474105 L71.4105684,25.3474105 C71.1634105,25.3474105 70.9558316,25.2690947 70.7874105,25.1116211" id="Fill-10"></path>
                    <path d="M86.4000842,31.5454316 C86.2653474,31.4106947 86.1979789,31.2422737 86.1979789,31.0401684 C86.1979789,30.8826947 86.2198737,30.7370105 86.2653474,30.6022737 L88.9264,24.2696421 L82.4590316,8.97701053 C82.3912421,8.79764211 82.3575579,8.67385263 82.3575579,8.60648421 C82.4026105,8.38206316 82.4977684,8.1968 82.6442947,8.05069474 C82.7899789,7.90501053 82.9642947,7.83174737 83.1659789,7.83174737 L87.1748211,7.83174737 C87.6464,7.83174737 87.9714526,8.06753684 88.1516632,8.53911579 L91.8906105,18.1054316 L95.7306105,8.53911579 C95.9546105,8.06753684 96.2914526,7.83174737 96.7411368,7.83174737 L100.715874,7.83174737 C100.917558,7.83174737 101.091874,7.90501053 101.237979,8.05069474 C101.383663,8.1968 101.456926,8.35974737 101.456926,8.53911579 C101.456926,8.69616842 101.434189,8.84227368 101.389558,8.97701053 L91.8569263,31.0401684 C91.6320842,31.5117474 91.2842947,31.7475368 90.8122947,31.7475368 L86.9053474,31.7475368 C86.7032421,31.7475368 86.5344,31.6801684 86.4000842,31.5454316" id="Fill-13"></path>
                    <path d="M102.197768,19.3690526 L102.197768,25.1614737 C102.197768,25.8103158 102.901347,26.2153684 103.462611,25.8894737 L108.452084,22.9934737 C109.011663,22.6688421 109.011663,21.8612632 108.452084,21.5370526 L103.462611,18.6410526 C102.901347,18.3151579 102.197768,18.7197895 102.197768,19.3690526" id="Fill-15"></path>
                </g>
            </g>
        </g>
    </g>
</svg>