<?xml version="1.0" encoding="UTF-8"?>
<svg width="191px" height="56px" viewBox="0 0 191 56" version="1.1" xmlns="http://www.w3.org/2000/svg" xmlns:xlink="http://www.w3.org/1999/xlink">
    <!-- Generator: Sketch 55.2 (78181) - https://sketchapp.com -->
    <title>Group 18</title>
    <desc>Created with Sketch.</desc>
    <g id="design" stroke="none" stroke-width="1" fill="none" fill-rule="evenodd">
        <g id="homepage" transform="translate(-120.000000, -117.000000)">
            <g id="Group-18" transform="translate(120.000000, 117.000000)">
                <path d="M12.3499895,43.9453368 C12.0552526,43.6704947 11.9071474,43.3168105 11.9071474,42.8842842 L11.9071474,12.7032316 L1.53241053,12.7032316 C1.09988421,12.7032316 0.736621053,12.5661789 0.442621053,12.2906 C0.147147368,12.0157579 -0.000221052632,11.6620737 -0.000221052632,11.2295474 L-0.000221052632,4.62744211 C-0.000221052632,4.19565263 0.147147368,3.83165263 0.442621053,3.53691579 C0.736621053,3.24217895 1.09988421,3.09481053 1.53241053,3.09481053 L33.5415684,3.09481053 C33.9733579,3.09481053 34.3373579,3.24217895 34.6313579,3.53691579 C34.9268316,3.83165263 35.0742,4.19565263 35.0742,4.62744211 L35.0742,11.2295474 C35.0742,11.6620737 34.9268316,12.0157579 34.6313579,12.2906 C34.3373579,12.5661789 33.9733579,12.7032316 33.5415684,12.7032316 L23.1668316,12.7032316 L23.1668316,42.8842842 C23.1668316,43.3168105 23.0187263,43.6704947 22.7247263,43.9453368 C22.4299895,44.2209158 22.0659895,44.3579684 21.6342,44.3579684 L13.4397789,44.3579684 C13.0079895,44.3579684 12.6439895,44.2209158 12.3499895,43.9453368" id="Fill-1" fill="#46BFFF"></path>
                <path d="M39.7902105,41.4696947 C37.6673684,39.1515895 36.6070526,35.8696947 36.6070526,31.6254842 L36.6070526,15.1791684 C36.6070526,14.7473789 36.7544211,14.3936947 37.0484211,14.1181158 C37.3438947,13.8432737 37.6872632,13.7054842 38.0807368,13.7054842 L45.92,13.7054842 C46.3525263,13.7054842 46.7157895,13.8432737 47.0112632,14.1181158 C47.3052632,14.3936947 47.4526316,14.7473789 47.4526316,15.1791684 L47.4526316,31.2718 C47.4526316,34.9265368 49.0832632,36.7539053 52.3452632,36.7539053 C53.9169474,36.7539053 55.146,36.2727474 56.0294737,35.3096947 C56.9136842,34.3466421 57.3565263,33.0011684 57.3565263,31.2718 L57.3565263,15.1791684 C57.3565263,14.7473789 57.5031579,14.3936947 57.7978947,14.1181158 C58.0933684,13.8432737 58.4558947,13.7054842 58.8891579,13.7054842 L66.6694737,13.7054842 C67.1012632,13.7054842 67.4556842,13.8432737 67.7312632,14.1181158 C68.0053684,14.3936947 68.1431579,14.7473789 68.1431579,15.1791684 L68.1431579,42.8844316 C68.1431579,43.2779053 68.0053684,43.6212737 67.7312632,43.9160105 C67.4556842,44.2107474 67.1012632,44.3581158 66.6694737,44.3581158 L59.4786316,44.3581158 C59.0453684,44.3581158 58.6828421,44.2210632 58.3873684,43.9454842 C58.0933684,43.6706421 57.946,43.3169579 57.946,42.8844316 L57.946,40.6444316 C55.902,43.5129579 52.64,44.9475895 48.16,44.9475895 C44.702,44.9475895 41.9123158,43.7885368 39.7902105,41.4696947" id="Fill-4" fill="#46BFFF"></path>
                <path d="M78.4599789,32.6275895 L78.4599789,21.7223263 L73.8031368,21.7223263 C73.4096632,21.7223263 73.0662947,21.5749579 72.7708211,21.2802211 C72.4768211,20.9854842 72.3294526,20.6421158 72.3294526,20.2486421 L72.3294526,15.1791684 C72.3294526,14.7473789 72.4768211,14.3936947 72.7708211,14.1181158 C73.0662947,13.8432737 73.4096632,13.7054842 73.8031368,13.7054842 L78.4599789,13.7054842 L78.4599789,3.97916842 C78.4599789,3.54737895 78.6066105,3.19369474 78.9020842,2.91811579 C79.1968211,2.64401053 79.5401895,2.50548421 79.9336632,2.50548421 L87.1841895,2.50548421 C87.6159789,2.50548421 87.9696632,2.64401053 88.2445053,2.91811579 C88.5193474,3.19369474 88.6578737,3.54737895 88.6578737,3.97916842 L88.6578737,13.7054842 L96.0262947,13.7054842 C96.4580842,13.7054842 96.8220842,13.8432737 97.1160842,14.1181158 C97.4115579,14.3936947 97.5589263,14.7473789 97.5589263,15.1791684 L97.5589263,20.2486421 C97.5589263,20.6819053 97.4115579,21.0355895 97.1160842,21.3096947 C96.8220842,21.5852737 96.4580842,21.7223263 96.0262947,21.7223263 L88.6578737,21.7223263 L88.6578737,31.7433789 C88.6578737,33.1190632 88.9128211,34.1602211 89.4241895,34.8675895 C89.9340842,35.5749579 90.7593474,35.9286421 91.8992421,35.9286421 L96.5568211,35.9286421 C96.9886105,35.9286421 97.3422947,36.0760105 97.6178737,36.3707474 C97.8919789,36.6654842 98.0305053,37.0294842 98.0305053,37.4612737 L98.0305053,42.8844316 C98.0305053,43.2779053 97.8919789,43.6212737 97.6178737,43.9160105 C97.3422947,44.2107474 96.9886105,44.3581158 96.5568211,44.3581158 L90.9568211,44.3581158 C82.6246105,44.3581158 78.4599789,40.4484316 78.4599789,32.6275895" id="Fill-6" fill="#46BFFF"></path>
                <path d="M103.247126,43.9158632 C102.952389,43.6211263 102.804284,43.2777579 102.804284,42.8842842 L102.804284,15.1790211 C102.804284,14.7472316 102.952389,14.3935474 103.247126,14.1179684 C103.541126,13.8431263 103.885232,13.7053368 104.277968,13.7053368 L111.646389,13.7053368 C112.078916,13.7053368 112.442179,13.8431263 112.737653,14.1179684 C113.032389,14.3935474 113.179021,14.7472316 113.179021,15.1790211 L113.179021,42.8842842 C113.179021,43.3175474 113.032389,43.6704947 112.737653,43.9453368 C112.442179,44.2209158 112.078916,44.3579684 111.646389,44.3579684 L104.277968,44.3579684 C103.885232,44.3579684 103.541126,44.2106 103.247126,43.9158632 M103.217653,9.01902105 C102.942074,8.72428421 102.804284,8.36175789 102.804284,7.92849474 L102.804284,2.44638947 C102.804284,2.0146 102.952389,1.6506 103.247126,1.35586316 C103.541126,1.06112632 103.885232,0.913757895 104.277968,0.913757895 L111.646389,0.913757895 C112.078916,0.913757895 112.442179,1.06112632 112.737653,1.35586316 C113.032389,1.6506 113.179021,2.0146 113.179021,2.44638947 L113.179021,7.92849474 C113.179021,8.36175789 113.032389,8.72428421 112.737653,9.01902105 C112.442179,9.31375789 112.078916,9.46112632 111.646389,9.46112632 L104.277968,9.46112632 C103.845442,9.46112632 103.491758,9.31375789 103.217653,9.01902105" id="Fill-8" fill="#46BFFF"></path>
                <path d="M123.877968,43.9453368 C123.583232,43.6704947 123.435863,43.3168105 123.435863,42.8842842 L123.435863,21.7221789 L119.014811,21.7221789 C118.582284,21.7221789 118.219021,21.5851263 117.924284,21.3095474 C117.630284,21.0354421 117.482179,20.6817579 117.482179,20.2484947 L117.482179,15.1790211 C117.482179,14.7472316 117.630284,14.3935474 117.924284,14.1179684 C118.219021,13.8431263 118.582284,13.7053368 119.014811,13.7053368 L123.435863,13.7053368 L123.435863,11.9369158 C123.435863,8.00807368 124.575021,5.15796842 126.854811,3.38954737 C129.133863,1.62112632 132.395863,0.736915789 136.640074,0.736915789 L141.296916,0.736915789 C141.729442,0.736915789 142.092705,0.874705263 142.387442,1.14954737 C142.682916,1.42512632 142.829547,1.77881053 142.829547,2.2106 L142.829547,7.28007368 C142.829547,7.71333684 142.682916,8.06702105 142.387442,8.34112632 C142.092705,8.61670526 141.729442,8.75375789 141.296916,8.75375789 L137.111653,8.75375789 C135.853863,8.75375789 134.960074,9.03891579 134.429547,9.60849474 C133.899021,10.1788105 133.633758,11.0527053 133.633758,12.2316526 L133.633758,13.7053368 L140.707442,13.7053368 C141.139968,13.7053368 141.503232,13.8431263 141.797968,14.1179684 C142.092705,14.3935474 142.240074,14.7472316 142.240074,15.1790211 L142.240074,20.2484947 C142.240074,20.6817579 142.092705,21.0354421 141.797968,21.3095474 C141.503232,21.5851263 141.139968,21.7221789 140.707442,21.7221789 L133.633758,21.7221789 L133.633758,42.8842842 C133.633758,43.2777579 133.495968,43.6211263 133.221126,43.9158632 C132.946284,44.2106 132.591863,44.3579684 132.160074,44.3579684 L124.968495,44.3579684 C124.535968,44.3579684 124.172705,44.2209158 123.877968,43.9453368" id="Fill-10" fill="#46BFFF"></path>
                <path d="M151.200147,55.2045053 C150.964358,54.9687158 150.846463,54.6739789 150.846463,54.3202947 C150.846463,54.0447158 150.884779,53.7897684 150.964358,53.5539789 L155.6212,42.4718737 L144.303305,15.7097684 C144.184674,15.3958737 144.125726,15.1792421 144.125726,15.0613474 C144.204568,14.6686105 144.371095,14.3444 144.627516,14.0887158 C144.882463,13.8337684 145.187516,13.7055579 145.540463,13.7055579 L152.555937,13.7055579 C153.3812,13.7055579 153.950042,14.1181895 154.265411,14.9434526 L160.808568,31.6845053 L167.528568,14.9434526 C167.920568,14.1181895 168.510042,13.7055579 169.296989,13.7055579 L176.252779,13.7055579 C176.605726,13.7055579 176.910779,13.8337684 177.166463,14.0887158 C177.421411,14.3444 177.549621,14.6295579 177.549621,14.9434526 C177.549621,15.2182947 177.509832,15.4739789 177.431726,15.7097684 L160.749621,54.3202947 C160.356147,55.1455579 159.747516,55.5581895 158.921516,55.5581895 L152.084358,55.5581895 C151.730674,55.5581895 151.4352,55.4402947 151.200147,55.2045053" id="Fill-13" fill="#46BFFF"></path>
                <path d="M178.846095,33.8958421 L178.846095,44.0325789 C178.846095,45.1680526 180.077358,45.8768947 181.059568,45.3065789 L189.791147,40.2385789 C190.770411,39.6704737 190.770411,38.2572105 189.791147,37.6898421 L181.059568,32.6218421 C180.077358,32.0515263 178.846095,32.7596316 178.846095,33.8958421" id="Fill-15" fill="#45DC6F"></path>
            </g>
        </g>
    </g>
</svg>
