<svg xmlns="http://www.w3.org/2000/svg" xmlns:xlink="http://www.w3.org/1999/xlink" width="23" height="23" viewBox="0 0 23 23">
  <defs>
    <polygon id="mag-a" points="0 0 23 0 23 23 0 23"/>
  </defs>
  <g fill="none" fill-rule="evenodd">
    <mask id="mag-b" fill="#fff">
      <use xlink:href="#mag-a"/>
    </mask>
    <path fill="#000" d="M22.4141,19.5859 L18.3401,15.5119 C19.3871,13.9319 20.0001,12.0379 20.0001,9.9999 C20.0001,4.4779 15.5231,-0.0001 10.0001,-0.0001 C4.4771,-0.0001 0.0001,4.4779 0.0001,9.9999 C0.0001,15.5229 4.4771,19.9999 10.0001,19.9999 C12.0381,19.9999 13.9311,19.3869 15.5121,18.3399 L19.5861,22.4139 C19.9761,22.8049 20.4881,22.9999 21.0001,22.9999 C21.5121,22.9999 22.0241,22.8049 22.4141,22.4139 C23.1951,21.6329 23.1951,20.3669 22.4141,19.5859" mask="url(#mag-b)"/>
  </g>
</svg>
