<?xml version="1.0" encoding="UTF-8"?>
<svg width="24px" height="24px" viewBox="0 0 24 24" version="1.1" xmlns="http://www.w3.org/2000/svg" xmlns:xlink="http://www.w3.org/1999/xlink">
    <!-- Generator: Sketch 55.2 (78181) - https://sketchapp.com -->
    <title>payment</title>
    <desc>Created with Sketch.</desc>
    <g id="payment" stroke="none" stroke-width="1" fill="none" fill-rule="evenodd">
        <path d="M10.8446,8.053 L10.8446,6.789 L3.2636,6.789 C2.5686,6.789 1.9996,7.359 1.9996,8.053 L1.9996,10.08 C1.9996,10.357 2.2236,10.58 2.4996,10.58 L11.1116,10.58 C10.9356,9.808 10.8446,8.977 10.8446,8.053" id="Fill-1" fill="#7F7F7F"></path>
        <path d="M22.1639,13.1067 C21.3029,14.4347 19.9879,15.5647 18.1049,16.6457 C17.8159,16.8117 17.4899,16.8977 17.1619,16.8977 C16.8329,16.8977 16.5079,16.8117 16.2219,16.6487 C14.3389,15.5647 13.0249,14.4337 12.1619,13.1067 L2.4999,13.1067 C2.2239,13.1067 1.9999,13.3317 1.9999,13.6067 L1.9999,19.4247 C1.9999,20.1227 2.5659,20.6877 3.2639,20.6877 L20.9519,20.6877 C21.6499,20.6877 22.2159,20.1227 22.2159,19.4247 L22.2159,13.1067 L22.1639,13.1067 Z" id="Fill-4" fill="#7F7F7F"></path>
        <path d="M19.5507,7.8167 L17.0247,10.9757 C16.9037,11.1257 16.7207,11.2127 16.5297,11.2127 L16.5037,11.2127 C16.3027,11.2037 16.1167,11.0997 16.0047,10.9317 L14.7407,9.0367 C14.5477,8.7457 14.6257,8.3537 14.9167,8.1607 C15.2047,7.9687 15.5977,8.0447 15.7917,8.3367 L16.5767,9.5127 L18.5637,7.0287 C18.7807,6.7567 19.1797,6.7137 19.4507,6.9297 C19.7247,7.1457 19.7677,7.5447 19.5507,7.8167 M21.8327,4.9467 L17.4107,3.0507 C17.2497,2.9827 17.0717,2.9827 16.9117,3.0507 L12.4897,4.9467 C12.2587,5.0457 12.1077,5.2737 12.1077,5.5267 L12.1077,8.0527 C12.1077,11.5297 13.3927,13.5607 16.8477,15.5507 C16.9447,15.6067 17.0537,15.6337 17.1617,15.6337 C17.2707,15.6337 17.3787,15.6067 17.4767,15.5507 C20.9307,13.5657 22.2157,11.5347 22.2157,8.0527 L22.2157,5.5267 C22.2157,5.2737 22.0657,5.0457 21.8327,4.9467" id="Fill-7" fill="#7F7F7F"></path>
    </g>
</svg>