<?xml version="1.0" encoding="UTF-8"?>
<svg width="24px" height="24px" viewBox="0 0 24 24" version="1.1" xmlns="http://www.w3.org/2000/svg" xmlns:xlink="http://www.w3.org/1999/xlink">
    <!-- Generator: Sketch 55.2 (78181) - https://sketchapp.com -->
    <title>phone</title>
    <desc>Created with Sketch.</desc>
    <g id="phone" stroke="none" stroke-width="1" fill="none" fill-rule="evenodd">
        <path d="M18.8201,14.5117 C18.0971,13.7977 17.1951,13.7977 16.4771,14.5117 C15.9291,15.0547 15.3821,15.5977 14.8421,16.1507 C14.6951,16.3027 14.5711,16.3347 14.3911,16.2337 C14.0371,16.0397 13.6591,15.8837 13.3191,15.6717 C11.7301,14.6727 10.4001,13.3877 9.2211,11.9427 C8.6361,11.2247 8.1161,10.4547 7.7531,9.5897 C7.6791,9.4147 7.6931,9.2997 7.8351,9.1577 C8.3831,8.6277 8.9171,8.0847 9.4561,7.5407 C10.2061,6.7857 10.2061,5.9027 9.4511,5.1427 C9.0231,4.7097 8.5951,4.2857 8.1671,3.8537 C7.7251,3.4117 7.2871,2.9647 6.8411,2.5277 C6.1181,1.8237 5.2161,1.8237 4.4971,2.5327 C3.9451,3.0747 3.4161,3.6327 2.8541,4.1667 C2.3341,4.6587 2.0711,5.2627 2.0161,5.9667 C1.9281,7.1137 2.2091,8.1957 2.6051,9.2487 C3.4161,11.4317 4.6491,13.3697 6.1461,15.1467 C8.1671,17.5497 10.5791,19.4507 13.4011,20.8237 C14.6731,21.4407 15.9891,21.9137 17.4211,21.9917 C18.4061,22.0477 19.2621,21.7987 19.9481,21.0307 C20.4181,20.5057 20.9471,20.0267 21.4441,19.5257 C22.1811,18.7797 22.1861,17.8767 21.4541,17.1407 C20.5791,16.2607 19.7001,15.3857 18.8201,14.5117" id="Fill-1" fill="#000000"></path>
    </g>
</svg>