<?xml version="1.0" encoding="UTF-8"?>
<svg width="24px" height="24px" viewBox="0 0 24 24" version="1.1" xmlns="http://www.w3.org/2000/svg" xmlns:xlink="http://www.w3.org/1999/xlink">
    <!-- Generator: Sketch 55.2 (78181) - https://sketchapp.com -->
    <title>rating_small</title>
    <desc>Created with Sketch.</desc>
    <g id="rating_small" stroke="none" stroke-width="1" fill="none" fill-rule="evenodd">
        <path d="M12.6934785,6.42051047 L14.0468668,9.16276532 C14.1569535,9.38554744 14.3693009,9.53998188 14.6150395,9.57546006 L17.6405981,10.0152852 C18.2593793,10.1050241 18.5066831,10.8651964 18.0585102,11.3008476 L15.8687759,13.4352777 C15.6913849,13.6084947 15.6099938,13.8584072 15.6522546,14.1031023 L16.1687752,17.1171826 C16.274688,17.7333552 15.6282547,18.2029194 15.0746907,17.9117896 L12.367914,16.4890101 C12.148784,16.3731843 11.8863498,16.3731843 11.6666981,16.4890101 L8.95992148,17.9117896 C8.40635747,18.2029194 7.75992411,17.7333552 7.86583692,17.1171826 L8.38235753,14.1031023 C8.4246183,13.8584072 8.34374892,13.6084947 8.16583626,13.4352777 L5.97610194,11.3008476 C5.52845075,10.8651964 5.77523282,10.1050241 6.39401407,10.0152852 L9.42009438,9.57546006 C9.66583297,9.53998188 9.87818033,9.38554744 9.9877453,9.16276532 L11.3411336,6.42051047 C11.6176548,5.86016388 12.4169574,5.86016388 12.6934785,6.42051047" id="Fill-1" fill="#000000"></path>
    </g>
</svg>