<?xml version="1.0" encoding="UTF-8"?>
<svg width="24px" height="24px" viewBox="0 0 24 24" version="1.1" xmlns="http://www.w3.org/2000/svg" xmlns:xlink="http://www.w3.org/1999/xlink">
    <!-- Generator: Sketch 55.2 (78181) - https://sketchapp.com -->
    <title>rating_large</title>
    <desc>Created with Sketch.</desc>
    <defs>
        <polygon id="path-1" points="0.000208641088 0.000173913043 20.8694206 0.000173913043 20.8694206 20 0.000208641088 20"></polygon>
    </defs>
    <g id="rating_large" stroke="none" stroke-width="1" fill="none" fill-rule="evenodd">
        <g id="Group-3" transform="translate(2.000000, 2.000000)">
            <mask id="mask-2" fill="white">
                <use xlink:href="#path-1"></use>
            </mask>
            <g id="Clip-2"></g>
            <path d="M11.559913,0.700608696 L13.8129565,5.27104348 C13.9955652,5.64234783 14.3486087,5.89973913 14.7573043,5.95886957 L19.7938261,6.69191304 C20.8225217,6.84147826 21.2338261,8.10843478 20.4894783,8.83452174 L16.8442609,12.391913 C16.5486087,12.6806087 16.4138261,13.0971304 16.4833913,13.5049565 L17.3442609,18.5284348 C17.519913,19.5553913 16.4442609,20.338 15.5233913,19.8527826 L11.0181739,17.4814783 C10.6529565,17.2884348 10.2164348,17.2884348 9.85121739,17.4814783 L5.346,19.8527826 C4.42513043,20.338 3.34947826,19.5553913 3.52513043,18.5284348 L4.386,13.5049565 C4.45556522,13.0971304 4.32078261,12.6806087 4.02426087,12.391913 L0.380782609,8.83452174 C-0.364434783,8.10843478 0.0468695652,6.84147826 1.07556522,6.69191304 L6.11208696,5.95886957 C6.52078261,5.89973913 6.87382609,5.64234783 7.05730435,5.27104348 L9.30947826,0.700608696 C9.76947826,-0.233304348 11.099913,-0.233304348 11.559913,0.700608696" id="Fill-1" fill="#000000" mask="url(#mask-2)"></path>
        </g>
    </g>
</svg>