<?xml version="1.0" encoding="UTF-8"?>
<svg width="24px" height="24px" viewBox="0 0 24 24" version="1.1" xmlns="http://www.w3.org/2000/svg" xmlns:xlink="http://www.w3.org/1999/xlink">
    <!-- Generator: Sketch 55.2 (78181) - https://sketchapp.com -->
    <title>rating-blue-transparent</title>
    <desc>Created with Sketch.</desc>
    <g id="rating-blue-transparent" stroke="none" stroke-width="1" fill="none" fill-rule="evenodd">
        <path d="M13.559913,2.7006087 L15.8129565,7.27104348 C15.9955652,7.64234783 16.3486087,7.89973913 16.7573043,7.95886957 L21.7938261,8.69191304 C22.8225217,8.84147826 23.2338261,10.1084348 22.4894783,10.8345217 L18.8442609,14.391913 C18.5486087,14.6806087 18.4138261,15.0971304 18.4833913,15.5049565 L19.3442609,20.5284348 C19.519913,21.5553913 18.4442609,22.338 17.5233913,21.8527826 L13.0181739,19.4814783 C12.6529565,19.2884348 12.2164348,19.2884348 11.8512174,19.4814783 L7.346,21.8527826 C6.42513043,22.338 5.34947826,21.5553913 5.52513043,20.5284348 L6.386,15.5049565 C6.45556522,15.0971304 6.32078261,14.6806087 6.02426087,14.391913 L2.38078261,10.8345217 C1.63556522,10.1084348 2.04686957,8.84147826 3.07556522,8.69191304 L8.11208696,7.95886957 C8.52078261,7.89973913 8.87382609,7.64234783 9.05730435,7.27104348 L11.3094783,2.7006087 C11.7694783,1.76669565 13.099913,1.76669565 13.559913,2.7006087" id="Fill-1" fill="#CCEDFF"></path>
    </g>
</svg>