<?xml version="1.0" encoding="UTF-8"?>
<svg width="100px" height="88px" viewBox="0 0 100 88" version="1.1" xmlns="http://www.w3.org/2000/svg" xmlns:xlink="http://www.w3.org/1999/xlink">
    <!-- Generator: Sketch 55.2 (78181) - https://sketchapp.com -->
    <title>tutor_page</title>
    <desc>Created with Sketch.</desc>
    <g id="tutor_page" stroke="none" stroke-width="1" fill="none" fill-rule="evenodd">
        <g id="Group-11" fill="#000000">
            <path d="M96,79 C96,81.757 93.757,84 91,84 L9,84 C6.243,84 4,81.757 4,79 L4,41.123 C6.041,44.435 8.774,47.274 12,49.438 L12,60 C12,61.654 13.346,63 15,63 L65,63 C66.654,63 68,61.654 68,60 L68,37 C68,35.346 66.654,34 65,34 L53.074,34 C53.508,32.388 53.792,30.716 53.918,29 L91,29 C93.757,29 96,31.243 96,34 L96,79 Z M11.465,24.465 C13.416,22.512 16.584,22.512 18.535,24.465 L24,29.929 L35.965,17.965 C37.916,16.012 41.084,16.012 43.035,17.965 C44.988,19.917 44.988,23.083 43.035,25.035 L27.535,40.535 C26.56,41.512 25.279,42 24,42 C22.721,42 21.44,41.512 20.465,40.535 L11.465,31.535 C9.512,29.583 9.512,26.417 11.465,24.465 L11.465,24.465 Z M51.648,38 L64,38 L64,59 L16,59 L16,51.648 C19.362,53.154 23.083,54 27,54 C37.971,54 47.428,47.419 51.648,38 L51.648,38 Z M91,25 L53.918,25 C52.891,11.044 41.214,0 27,0 C12.112,0 0,12.112 0,27 C0,28.517 0.132,30.003 0.373,31.452 C0.13,32.277 0,33.131 0,34 L0,79 C0,83.963 4.037,88 9,88 L91,88 C95.963,88 100,83.963 100,79 L100,34 C100,29.037 95.963,25 91,25 L91,25 Z" id="Fill-1"></path>
            <path d="M45,71 L14,71 C12.896,71 12,71.896 12,73 C12,74.104 12.896,75 14,75 L45,75 C46.104,75 47,74.104 47,73 C47,71.896 46.104,71 45,71" id="Fill-3"></path>
            <path d="M90,34 C88.896,34 88,34.896 88,36 C88,37.104 88.896,38 90,38 C91.104,38 92,37.104 92,36 C92,34.896 91.104,34 90,34" id="Fill-5"></path>
            <path d="M85,34 C83.896,34 83,34.896 83,36 C83,37.104 83.896,38 85,38 C86.104,38 87,37.104 87,36 C87,34.896 86.104,34 85,34" id="Fill-7"></path>
            <path d="M80,34 C78.896,34 78,34.896 78,36 C78,37.104 78.896,38 80,38 C81.104,38 82,37.104 82,36 C82,34.896 81.104,34 80,34" id="Fill-9"></path>
        </g>
    </g>
</svg>