<?xml version="1.0" encoding="UTF-8"?>
<svg width="24px" height="24px" viewBox="0 0 24 24" version="1.1" xmlns="http://www.w3.org/2000/svg" xmlns:xlink="http://www.w3.org/1999/xlink">
    <!-- Generator: Sketch 55.2 (78181) - https://sketchapp.com -->
    <title>web</title>
    <desc>Created with Sketch.</desc>
    <g id="web" stroke="none" stroke-width="1" fill="none" fill-rule="evenodd">
        <path d="M19.6016,16.4922 C18.8736,16.2592 18.0396,16.0612 17.1276,15.9062 C17.3736,14.8642 17.5206,13.7442 17.5596,12.5872 L20.8076,12.5872 C20.7166,13.9802 20.3026,15.3112 19.6016,16.4922 L19.6016,16.4922 Z M18.2416,18.2412 C17.3406,19.1412 16.2806,19.8232 15.1226,20.2612 C15.4546,19.8632 15.7616,19.4002 16.0416,18.8732 C16.3396,18.3132 16.5966,17.6982 16.8106,17.0412 C17.5716,17.1672 18.2746,17.3222 18.9016,17.5042 C18.6966,17.7602 18.4766,18.0072 18.2416,18.2412 L18.2416,18.2412 Z M12.5866,20.6772 L12.5866,16.6742 C13.6456,16.6952 14.6706,16.7632 15.6296,16.8762 C15.4516,17.3922 15.2426,17.8782 15.0056,18.3232 C14.3206,19.6132 13.4776,20.4272 12.5866,20.6772 L12.5866,20.6772 Z M12.5866,3.2562 L12.5866,3.2562 C13.4776,3.5052 14.3206,4.3182 15.0056,5.6092 C15.2476,6.0632 15.4586,6.5582 15.6406,7.0872 C14.6726,7.1932 13.6436,7.2562 12.5866,7.2692 L12.5866,3.2562 Z M12.5866,11.4132 L12.5866,8.4432 C13.7586,8.4282 14.9016,8.3542 15.9716,8.2292 C16.2106,9.2212 16.3526,10.2972 16.3876,11.4132 L12.5866,11.4132 Z M12.5866,12.5872 L16.3856,12.5872 C16.3466,13.6902 16.2036,14.7542 15.9636,15.7352 C14.9016,15.6032 13.7626,15.5232 12.5866,15.5012 L12.5866,12.5872 Z M18.2416,5.7592 C18.4766,5.9942 18.6976,6.2412 18.9026,6.4972 C18.2746,6.6692 17.5756,6.8142 16.8246,6.9312 C16.6076,6.2592 16.3456,5.6302 16.0416,5.0582 C15.7856,4.5752 15.5046,4.1442 15.2056,3.7702 C16.3306,4.2082 17.3626,4.8792 18.2416,5.7592 L18.2416,5.7592 Z M19.6066,7.5142 C20.3046,8.6942 20.7166,10.0222 20.8076,11.4132 L17.5616,11.4132 C17.5276,10.2482 17.3826,9.1182 17.1376,8.0672 C18.0406,7.9222 18.8736,7.7362 19.6066,7.5142 L19.6066,7.5142 Z M11.4136,7.2652 C10.3526,7.2442 9.3276,7.1762 8.3686,7.0622 C8.5476,6.5432 8.7566,6.0552 8.9946,5.6092 C9.6796,4.3182 10.5226,3.5052 11.4136,3.2562 L11.4136,7.2652 Z M11.4136,11.4132 L7.6126,11.4132 C7.6476,10.2872 7.7916,9.2022 8.0356,8.2022 C9.0976,8.3352 10.2366,8.4162 11.4136,8.4392 L11.4136,11.4132 Z M11.4136,15.4982 C10.2426,15.5132 9.1006,15.5872 8.0316,15.7132 C7.7946,14.7372 7.6536,13.6822 7.6146,12.5872 L11.4136,12.5872 L11.4136,15.4982 Z M11.4136,20.6772 C10.5226,20.4272 9.6796,19.6132 8.9946,18.3232 C8.7546,17.8722 8.5436,17.3792 8.3636,16.8542 C9.3296,16.7482 10.3566,16.6852 11.4136,16.6712 L11.4136,20.6772 Z M5.7586,18.2412 C5.5096,17.9922 5.2776,17.7302 5.0616,17.4582 C5.6996,17.2812 6.4126,17.1322 7.1796,17.0122 C7.3956,17.6792 7.6556,18.3042 7.9576,18.8732 C8.2386,19.4002 8.5456,19.8632 8.8766,20.2612 C7.7196,19.8232 6.6586,19.1412 5.7586,18.2412 L5.7586,18.2412 Z M4.3676,16.4392 C3.6846,15.2712 3.2826,13.9592 3.1926,12.5872 L6.4406,12.5872 C6.4786,13.7322 6.6226,14.8422 6.8646,15.8752 C5.9486,16.0232 5.1056,16.2132 4.3676,16.4392 L4.3676,16.4392 Z M4.4306,7.4522 C5.1506,7.6822 5.9736,7.8772 6.8706,8.0312 C6.6206,9.0922 6.4736,10.2342 6.4386,11.4132 L3.1926,11.4132 C3.2856,9.9982 3.7096,8.6472 4.4306,7.4522 L4.4306,7.4522 Z M5.7586,5.7592 C6.6376,4.8792 7.6696,4.2082 8.7956,3.7702 C8.4956,4.1442 8.2156,4.5752 7.9576,5.0582 C7.6596,5.6202 7.4026,6.2372 7.1876,6.8962 C6.4446,6.7722 5.7556,6.6212 5.1416,6.4432 C5.3336,6.2062 5.5396,5.9772 5.7586,5.7592 L5.7586,5.7592 Z M19.0716,4.9292 C17.1826,3.0402 14.6706,2.0002 11.9996,2.0002 C9.3296,2.0002 6.8176,3.0402 4.9286,4.9292 C3.0396,6.8172 1.9996,9.3292 1.9996,12.0002 C1.9996,14.6712 3.0396,17.1822 4.9286,19.0712 C6.8176,20.9602 9.3296,22.0002 11.9996,22.0002 C14.6706,22.0002 17.1826,20.9602 19.0716,19.0712 C20.9596,17.1822 21.9996,14.6712 21.9996,12.0002 C21.9996,9.3292 20.9596,6.8172 19.0716,4.9292 L19.0716,4.9292 Z" id="Fill-1" fill="#000000"></path>
    </g>
</svg>