<?xml version="1.0" encoding="UTF-8"?>
<svg width="24px" height="24px" viewBox="0 0 24 24" version="1.1" xmlns="http://www.w3.org/2000/svg" xmlns:xlink="http://www.w3.org/1999/xlink">
    <!-- Generator: Sketch 55.2 (78181) - https://sketchapp.com -->
    <title>youtube</title>
    <desc>Created with Sketch.</desc>
    <g id="youtube" stroke="none" stroke-width="1" fill="none" fill-rule="evenodd">
        <path d="M10.0063,14.9999 L10.0063,9.0029 L15.2123,12.0019 L10.0063,14.9999 Z M21.5883,7.1909 C21.3573,6.3339 20.6813,5.6589 19.8253,5.4289 C18.2593,4.9999 12.0003,4.9999 12.0003,4.9999 C12.0003,4.9999 5.7393,4.9999 4.1743,5.4119 C3.3343,5.6429 2.6423,6.3349 2.4113,7.1909 C2.0003,8.7559 2.0003,12.0019 2.0003,12.0019 C2.0003,12.0019 2.0003,15.2639 2.4113,16.8119 C2.6423,17.6689 3.3183,18.3449 4.1743,18.5749 C5.7563,19.0029 12.0003,19.0029 12.0003,19.0029 C12.0003,19.0029 18.2593,19.0029 19.8253,18.5919 C20.6813,18.3599 21.3573,17.6859 21.5883,16.8289 C22.0003774,15.2639 22.0003774,12.0189 22.0003774,12.0189 C22.0003774,12.0189 22.0163,8.7559 21.5883,7.1909 L21.5883,7.1909 Z" id="Fill-1" fill="#000000"></path>
    </g>
</svg>